<?xml version="1.0" encoding="UTF-8" standalone="no"?>
<svg
   xmlns:dc="http://purl.org/dc/elements/1.1/"
   xmlns:cc="http://creativecommons.org/ns#"
   xmlns:rdf="http://www.w3.org/1999/02/22-rdf-syntax-ns#"
   xmlns:svg="http://www.w3.org/2000/svg"
   xmlns="http://www.w3.org/2000/svg"
   xmlns:xlink="http://www.w3.org/1999/xlink"
   xmlns:sodipodi="http://sodipodi.sourceforge.net/DTD/sodipodi-0.dtd"
   xmlns:inkscape="http://www.inkscape.org/namespaces/inkscape"
   id="svg2"
   version="1.1"
   viewBox="0 0 173 56.000004"
   sodipodi:docname="panel-background.svgz"
   inkscape:version="1.1.2 (0a00cf5339, 2022-02-04)">
  <metadata
     id="metadata165">
    <rdf:RDF>
      <cc:Work
         rdf:about="">
        <dc:format>image/svg+xml</dc:format>
        <dc:type
           rdf:resource="http://purl.org/dc/dcmitype/StillImage" />
      </cc:Work>
    </rdf:RDF>
  </metadata>
  <sodipodi:namedview
     pagecolor="#c7c7c7"
     bordercolor="#666666"
     borderopacity="1"
     objecttolerance="10"
     gridtolerance="10"
     guidetolerance="10"
     inkscape:pageopacity="0"
     inkscape:pageshadow="2"
     inkscape:window-width="1440"
     inkscape:window-height="732"
     id="namedview165"
     showgrid="true"
     inkscape:zoom="4.0000001"
     inkscape:cx="-8.1249998"
     inkscape:cy="23.499999"
     inkscape:window-x="0"
     inkscape:window-y="0"
     inkscape:window-maximized="1"
     inkscape:current-layer="svg2"
     inkscape:document-rotation="0"
     showguides="true"
     inkscape:guide-bbox="true"
     inkscape:pagecheckerboard="0"
     inkscape:snap-bbox="true"
     inkscape:bbox-nodes="true"
     inkscape:bbox-paths="true">
    <inkscape:grid
       type="xygrid"
       id="grid989" />
  </sodipodi:namedview>
  <defs
     id="defs4">
    <linearGradient
       id="linearGradient1020">
      <stop
         id="stop1014"
         stop-opacity=".3"
         offset="0" />
      <stop
         id="stop1016"
         stop-opacity=".06"
         offset="0.75" />
      <stop
         id="stop1018"
         stop-opacity="0"
         offset="1" />
    </linearGradient>
    <style
       id="current-color-scheme"
       type="text/css">.ColorScheme-Text {
        color:#333333;
        stop-color:#333333;
      }
      .ColorScheme-Background {
        color:#f5f5f5;
        stop-color:#f5f5f5;
      }
      .ColorScheme-Highlight {
        color:#3daee9;
        stop-color:#3daee9;
      }
      .ColorScheme-ViewText {
        color:#333333;
        stop-color:#333333;
      }
      .ColorScheme-ViewBackground {
        color:#ffffff;
        stop-color:#ffffff;
      }
      .ColorScheme-ViewHover {
        color:#93cee9;
        stop-color:#93cee9;
      }
      .ColorScheme-ViewFocus{
        color:#3476CF;
        stop-color:#3476CF;
      }
      .ColorScheme-ButtonText {
        color:#333333;
        stop-color:#333333;
      }
      .ColorScheme-ButtonBackground {
        color:#f5f5f5;
        stop-color:#f5f5f5;
      }
      .ColorScheme-ButtonHover {
        color:#9abbe7;
        stop-color:#9abbe7;
      }
      .ColorScheme-ButtonFocus{
        color:#3476CF;
        stop-color:#3476CF;
      }</style>
    <linearGradient
       id="linearGradient4950"
       x1="51.000019"
       x2="63"
       y1="932.36218"
       y2="932.36218"
       gradientUnits="userSpaceOnUse">
      <stop
         id="stop1060"
         stop-opacity=".3"
         offset="0" />
      <stop
         id="stop1091"
         stop-opacity=".06"
         offset="0.75000125" />
      <stop
         id="stop1062"
         stop-opacity="0"
         offset="1" />
    </linearGradient>
    <linearGradient
       id="linearGradient4948"
       x1="-19.000019"
       x2="-7"
       y1="932.36218"
       y2="932.36218"
       gradientUnits="userSpaceOnUse">
      <stop
         id="stop1084"
         stop-opacity=".3"
         offset="0" />
      <stop
         id="stop1107"
         stop-opacity=".06"
         offset="0.74999875" />
      <stop
         id="stop1086"
         stop-opacity="0"
         offset="1" />
    </linearGradient>
    <linearGradient
       id="linearGradient4934"
       x1="948.36218"
       x2="960.36218"
       y1="-35.000019"
       y2="-35"
       gradientUnits="userSpaceOnUse">
      <stop
         id="stop1108"
         stop-opacity=".3"
         offset="0" />
      <stop
         id="stop1099"
         stop-opacity=".06"
         offset="0.74999809" />
      <stop
         id="stop1110"
         stop-opacity="0"
         offset="1" />
    </linearGradient>
    <linearGradient
       id="linearGradient3054"
       x1="-916.36218"
       x2="-904.36218"
       y1="-35.000019"
       y2="-35"
       gradientUnits="userSpaceOnUse">
      <stop
         id="stop1036"
         stop-opacity=".3"
         offset="0" />
      <stop
         id="stop1083"
         stop-opacity=".06"
         offset="0.75000191" />
      <stop
         id="stop1038"
         stop-opacity="0"
         offset="1" />
    </linearGradient>
    <radialGradient
       inkscape:collect="always"
       xlink:href="#linearGradient1020"
       id="radialGradient1012"
       cx="76"
       cy="12"
       fx="76"
       fy="12"
       r="6"
       gradientUnits="userSpaceOnUse"
       gradientTransform="matrix(2.4708117e-7,-2,1.9999999,3.6152116e-7,51.999982,164)" />
    <radialGradient
       inkscape:collect="always"
       xlink:href="#linearGradient1020"
       id="radialGradient1032"
       gradientUnits="userSpaceOnUse"
       gradientTransform="matrix(2.4708117e-7,-2,1.9999999,3.6152116e-7,51.999982,164)"
       cx="76"
       cy="12"
       fx="76"
       fy="12"
       r="6" />
    <radialGradient
       inkscape:collect="always"
       xlink:href="#linearGradient1020"
       id="radialGradient1044"
       gradientUnits="userSpaceOnUse"
       gradientTransform="matrix(2.4708117e-7,-2,1.9999999,3.6152116e-7,51.999982,164)"
       cx="76"
       cy="12"
       fx="76"
       fy="12"
       r="6" />
    <radialGradient
       inkscape:collect="always"
       xlink:href="#linearGradient1020"
       id="radialGradient1056"
       gradientUnits="userSpaceOnUse"
       gradientTransform="matrix(2.4708117e-7,-2,1.9999999,3.6152116e-7,51.999982,164)"
       cx="76"
       cy="12"
       fx="76"
       fy="12"
       r="6" />
  </defs>
  <rect
     id="hint-tile-center"
     y="2.6171874e-06"
     width="5"
     height="5"
     fill="#ff6600"
     x="0" />
  <g
     id="top"
     transform="translate(0,-904.36218)"
     style="opacity:1">
    <rect
       id="rect4152"
       class="ColorScheme-Background"
       transform="matrix(0,-1,-1,0,0,0)"
       x="-916.36218"
       y="-50.999985"
       width="6"
       height="32"
       fill="currentColor"
       style="opacity:0.65" />
  </g>
  <g
     id="bottom"
     transform="translate(0,-904.36218)"
     style="opacity:1">
    <rect
       id="rect4148"
       class="ColorScheme-Background"
       transform="rotate(90)"
       x="948.36218"
       y="-50.999985"
       width="6"
       height="32"
       fill="currentColor"
       style="opacity:0.65" />
  </g>
  <g
     id="left"
     transform="translate(0,-904.36218)"
     style="opacity:1">
    <rect
       id="rect4144"
       class="ColorScheme-Background"
       transform="scale(-1,1)"
       x="-19.000004"
       y="916.36218"
       width="5.9999995"
       height="32"
       fill="currentColor"
       style="opacity:0.65" />
  </g>
  <g
     id="right"
     transform="translate(0,-904.36218)"
     style="opacity:1">
    <rect
       id="rect4140"
       class="ColorScheme-Background"
       x="50.999985"
       y="916.36218"
       width="6"
       height="32"
       fill="currentColor"
       style="opacity:0.65" />
  </g>
  <g
     id="center"
     transform="translate(0,-904.36218)"
     style="opacity:1">
    <rect
       id="rect4401"
       x="19.000004"
       y="916.36218"
       width="32"
       height="32"
       fill="none" />
    <rect
       id="rect4138"
       class="ColorScheme-Background"
       x="19.000004"
       y="916.36218"
       width="32"
       height="32"
       fill="currentColor"
       style="opacity:0.65" />
  </g>
  <g
     id="shadow-top"
     transform="translate(56.99998,-904.36216)"
     style="opacity:0.35">
    <rect
       id="rect4820"
       transform="matrix(0,-1,-1,0,0,0)"
       x="-916.36218"
       y="-50.999985"
       width="6"
       height="32"
       fill="none" />
    <rect
       id="rect4822"
       transform="matrix(0,-1,-1,0,0,0)"
       x="-910.36218"
       y="-50.999985"
       width="6"
       height="32"
       fill="url(#linearGradient3054)"
       opacity="0.9"
       style="fill:url(#linearGradient3054)" />
    <rect
       id="rect4824"
       transform="matrix(0,-1,-1,0,0,0)"
       x="-911.36218"
       y="-50.999985"
       width="0.99997741"
       height="32"
       fill="none" />
  </g>
  <g
     id="shadow-topleft"
     transform="translate(56.99998,-904.36216)"
     style="opacity:0.35">
    <path
       id="path4828"
       style="fill:url(#radialGradient1012);fill-opacity:1;opacity:0.9"
       d="M 64 0 L 64 9 L 64 12 L 70 12 C 70 8.676 72.676 6 76 6 L 76 0 L 73 0 L 64 0 z "
       transform="translate(-56.99998,904.36216)" />
    <rect
       id="rect4834"
       transform="scale(-1,1)"
       x="-19.000004"
       y="910.36218"
       width="5.9999919"
       height="6.0000224"
       ry="0.9999752"
       fill="none" />
    <rect
       id="rect4836"
       transform="scale(-1,1)"
       x="-19.000004"
       y="910.36218"
       width="2.0000038"
       height="5.9999752"
       ry="0"
       fill="none" />
    <rect
       id="rect4838"
       transform="scale(-1,1)"
       x="-18"
       y="914.36218"
       width="4.9999924"
       height="2.0000248"
       fill="none" />
  </g>
  <g
     id="shadow-bottom"
     transform="translate(56.99998,-904.36216)"
     style="opacity:0.35">
    <rect
       id="rect4856"
       transform="rotate(90)"
       x="948.36218"
       y="-50.999985"
       width="6"
       height="32"
       fill="none" />
    <rect
       id="rect4858"
       transform="rotate(90)"
       x="954.36218"
       y="-50.999985"
       width="6"
       height="32"
       fill="url(#linearGradient4934)"
       opacity="0.9"
       style="fill:url(#linearGradient4934)" />
    <rect
       id="rect4860"
       transform="rotate(90)"
       x="953.36218"
       y="-50.999985"
       width="1.0000226"
       height="31.999971"
       fill="none" />
  </g>
  <g
     id="shadow-left"
     transform="translate(56.99998,-904.36216)"
     style="opacity:0.35">
    <rect
       id="rect4892"
       transform="scale(-1,1)"
       x="-19.000004"
       y="916.36218"
       width="5.9999995"
       height="32"
       fill="none" />
    <rect
       id="rect4894"
       transform="scale(-1,1)"
       x="-13.000002"
       y="916.36218"
       width="5.9999995"
       height="32"
       fill="url(#linearGradient4948)"
       opacity="0.9"
       style="fill:url(#linearGradient4948)" />
    <rect
       id="rect4896"
       transform="scale(-1,1)"
       x="-14.000002"
       y="916.36218"
       width="1.0000019"
       height="32.000023"
       fill="none" />
  </g>
  <g
     id="shadow-right"
     transform="translate(56.99998,-904.36216)"
     style="opacity:0.35">
    <rect
       id="rect4900"
       x="50.999985"
       y="916.36218"
       width="5.9999995"
       height="32"
       fill="none" />
    <rect
       id="rect4902"
       x="56.999985"
       y="916.36218"
       width="5.9999995"
       height="32"
       fill="url(#linearGradient4950)"
       opacity="0.9"
       style="fill:url(#linearGradient4950)" />
    <rect
       id="rect4904"
       x="55.999985"
       y="916.36218"
       width="1"
       height="32.000023"
       fill="none" />
  </g>
  <g
     id="shadow-center"
     transform="translate(56.99998,-904.36216)"
     fill="none">
    <rect
       id="rect4908"
       x="19.000004"
       y="916.36218"
       width="32"
       height="32" />
    <rect
       id="rect4910"
       x="19.000004"
       y="916.36218"
       width="32"
       height="32" />
  </g>
  <rect
     id="shadow-hint-top-margin"
     x="90"
     y="0"
     width="4"
     height="6"
     fill="#ff00ff" />
  <rect
     id="shadow-hint-bottom-margin"
     x="90"
     y="50"
     width="4"
     height="6"
     fill="#ff00ff" />
  <rect
     id="shadow-hint-right-margin"
     transform="rotate(90)"
     x="26"
     y="-120"
     width="4"
     height="6"
     fill="#ff00ff" />
  <rect
     id="shadow-hint-left-margin"
     transform="rotate(90)"
     x="26"
     y="-70"
     width="4"
     height="6"
     fill="#ff00ff" />
  <rect
     y="0"
     x="97"
     height="6"
     width="4"
     id="shadow-hint-top-inset"
     style="fill:#00ff00;fill-opacity:1;stroke:none" />
  <rect
     style="fill:#00ff00;fill-opacity:1;stroke:none"
     id="shadow-hint-bottom-inset"
     width="4"
     height="6"
     x="97"
     y="50" />
  <rect
     transform="rotate(90)"
     style="fill:#00ff00;fill-opacity:1;stroke:none"
     id="shadow-hint-right-inset"
     width="4"
     height="6"
     x="32"
     y="-120" />
  <rect
     transform="rotate(90)"
     y="-70"
     x="32"
     height="6"
     width="4"
     id="shadow-hint-left-inset"
     style="fill:#00ff00;fill-opacity:1;stroke:none" />
  <rect
     id="mask-top"
     x="130"
     y="6"
     width="32"
     height="6"
     style="stroke-width:0.919936;paint-order:normal" />
  <rect
     id="mask-center"
     x="130"
     y="12"
     width="32"
     height="32"
     style="stroke-width:1.16364;paint-order:normal" />
  <rect
     id="mask-bottom"
     transform="scale(1,-1)"
     x="130"
     y="-50"
     width="32"
     height="6"
     style="stroke-width:0.919936;paint-order:normal" />
  <rect
     id="mask-left"
     transform="rotate(90)"
     x="12"
     y="-130"
     width="32"
     height="6"
     style="stroke-width:0.919936;paint-order:normal" />
  <rect
     id="mask-right"
     transform="rotate(90)"
     x="12"
     y="-168"
     width="32"
     height="6"
     style="stroke-width:0.919936;paint-order:normal" />
  <path
     id="mask-bottomright"
     style="stroke-width:0.727259"
     class="ColorScheme-Background"
     d="M 162 44 L 162 50 C 165.324 50 168 47.324 168 44 L 162 44 z " />
  <path
     id="mask-bottomleft"
     style="stroke-width:0.727259"
     class="ColorScheme-Background"
     d="M 124 44 C 124 47.324 126.676 50 130 50 L 130 44 L 124 44 z " />
  <path
     id="mask-topleft"
     style="stroke-width:0.727259"
     class="ColorScheme-Background"
     d="M 130 6 C 126.676 6 124 8.676 124 12 L 130 12 L 130 6 z " />
  <path
     id="mask-topright"
     style="stroke-width:0.727259"
     class="ColorScheme-Background"
     d="M 162 6 L 162 12 L 168 12 C 168 8.676 165.324 6 162 6 z " />
  <g
     id="topleft"
     transform="translate(0,-904.3622)"
     style="opacity:1">
    <path
       id="rect4159"
       d="M 19 6 C 15.676 6 13 8.676 13 12 L 19 12 L 19 6 z "
       transform="translate(0,904.3622)"
       class="ColorScheme-Background"
       fill="currentColor"
       style="opacity:0.65" />
  </g>
  <g
     id="topright"
     transform="translate(0,-904.3622)"
     style="opacity:1">
    <path
       id="rect4177"
       style="opacity:0.65"
       d="M 51 6 L 51 12 L 57 12 C 57 8.676 54.324 6 51 6 z "
       transform="translate(0,904.3622)"
       class="ColorScheme-Background"
       fill="currentColor" />
  </g>
  <g
     id="bottomleft"
     transform="translate(0,-904.3622)"
     style="opacity:1">
    <path
       id="path5048"
       d="M 13 44 C 13 47.324 15.676 50 19 50 L 19 44 L 13 44 z "
       transform="translate(0,904.3622)"
       class="ColorScheme-Background"
       fill="currentColor"
       style="opacity:0.65" />
  </g>
  <g
     id="bottomright"
     transform="translate(0,-904.3622)"
     style="opacity:1"
     class="ColorScheme-Background">
    <path
       id="rect4177-6"
       d="M 51 44 L 51 50 C 54.324 50 57 47.324 57 44 L 51 44 z "
       transform="translate(0,904.3622)"
       fill="currentColor"
       class="ColorScheme-Background"
       style="opacity:0.65" />
  </g>
  <rect
     id="hint-bottom-margin"
     x="33.000004"
     y="46"
     height="4"
     fill="#800080"
     width="4"
     style="stroke-width:0.999996" />
  <rect
     id="hint-left-margin"
     transform="rotate(90)"
     x="26.000002"
     y="-17"
     width="4"
     height="4"
     fill="#800080"
     style="stroke-width:0.999996" />
  <rect
     id="hint-top-margin"
     x="33.000004"
     y="6"
     width="4"
     height="4"
     fill="#800080"
     style="stroke-width:0.999996" />
  <rect
     id="rect1156"
     y="56.000004"
     width="2"
     height="2"
     x="0" />
  <g
     id="shadow-topright"
     transform="rotate(90,515.6811,508.68109)"
     style="opacity:0.35">
    <path
       id="path1022"
       style="fill:url(#radialGradient1032);fill-opacity:1;opacity:0.9"
       d="m 64,0 v 9 3 h 6 C 70,8.676 72.676,6 76,6 V 0 h -3 z"
       transform="translate(-56.99998,904.36216)" />
    <rect
       id="rect1024"
       transform="scale(-1,1)"
       x="-19.000004"
       y="910.36218"
       width="5.9999919"
       height="6.0000224"
       ry="0.9999752"
       fill="none" />
    <rect
       id="rect1026"
       transform="scale(-1,1)"
       x="-19.000004"
       y="910.36218"
       width="2.0000038"
       height="5.9999752"
       ry="0"
       fill="none" />
    <rect
       id="rect1028"
       transform="scale(-1,1)"
       x="-18"
       y="914.36218"
       width="4.9999924"
       height="2.0000248"
       fill="none" />
  </g>
  <g
     id="shadow-bottomleft"
     transform="rotate(-90,-388.68107,451.68111)"
     style="opacity:0.35">
    <path
       id="path1034"
       style="fill:url(#radialGradient1044);fill-opacity:1;opacity:0.9"
       d="m 64,0 v 9 3 h 6 C 70,8.676 72.676,6 76,6 V 0 h -3 z"
       transform="translate(-56.99998,904.36216)" />
    <rect
       id="rect1036"
       transform="scale(-1,1)"
       x="-19.000004"
       y="910.36218"
       width="5.9999919"
       height="6.0000224"
       ry="0.9999752"
       fill="none" />
    <rect
       id="rect1038"
       transform="scale(-1,1)"
       x="-19.000004"
       y="910.36218"
       width="2.0000038"
       height="5.9999752"
       ry="0"
       fill="none" />
    <rect
       id="rect1040"
       transform="scale(-1,1)"
       x="-18"
       y="914.36218"
       width="4.9999924"
       height="2.0000248"
       fill="none" />
  </g>
  <g
     id="shadow-bottomright"
     transform="rotate(180,63.499986,480.1811)"
     style="opacity:0.35">
    <path
       id="path1046"
       style="fill:url(#radialGradient1056);fill-opacity:1;opacity:0.9"
       d="m 64,0 v 9 3 h 6 C 70,8.676 72.676,6 76,6 V 0 h -3 z"
       transform="translate(-56.99998,904.36216)" />
    <rect
       id="rect1048"
       transform="scale(-1,1)"
       x="-19.000004"
       y="910.36218"
       width="5.9999919"
       height="6.0000224"
       ry="0.9999752"
       fill="none" />
    <rect
       id="rect1050"
       transform="scale(-1,1)"
       x="-19.000004"
       y="910.36218"
       width="2.0000038"
       height="5.9999752"
       ry="0"
       fill="none" />
    <rect
       id="rect1052"
       transform="scale(-1,1)"
       x="-18"
       y="914.36218"
       width="4.9999924"
       height="2.0000248"
       fill="none" />
  </g>
  <rect
     id="hint-right-margin"
     transform="rotate(90)"
     x="26.000002"
     y="-56.999985"
     width="4"
     height="4"
     fill="#800080"
     style="stroke-width:0.999996" />
  <rect
     style="color:#eff0f1;fill:currentColor;fill-opacity:1;stroke:none;stop-color:#eff0f1"
     id="thick-center"
     width="32"
     height="32"
     x="19"
     y="-62.138721"
     class="ColorScheme-Background" />
  <rect
     transform="rotate(90)"
     style="fill:#800080;fill-opacity:1;stroke:none;stroke-width:1.1547"
     id="thick-hint-right-margin"
     width="4"
     height="8"
     x="-42.138721"
     y="-56" />
  <rect
     transform="rotate(90)"
     y="-20"
     x="-42.138721"
     height="8"
     width="4"
     id="thick-hint-left-margin"
     style="fill:#800080;fill-opacity:1;stroke:none;stroke-width:1.1547" />
  <rect
     y="-68.138718"
     x="38"
     height="8"
     width="4"
     id="thick-hint-top-margin"
     style="fill:#800080;fill-opacity:1;stroke:none;stroke-width:1.1547" />
  <rect
     style="fill:#800080;fill-opacity:1;stroke:none;stroke-width:1.1547"
     id="thick-hint-bottom-margin"
     width="4"
     height="8"
     x="39"
     y="-32.138721" />
  <rect
     id="hint-top-inset"
     width="4"
     height="6"
     x="38"
     y="6"
     style="fill:#57e389;stroke-width:0.92582" />
  <rect
     id="hint-right-inset"
     width="4"
     height="6"
     x="31"
     y="-57"
     style="fill:#57e389;stroke-width:0.92582"
     transform="rotate(90)" />
  <rect
     id="hint-left-inset"
     width="4"
     height="6"
     x="31"
     y="-19"
     style="fill:#57e389;stroke-width:0.92582"
     transform="rotate(90)" />
  <rect
     id="hint-bottom-inset"
     width="4"
     height="6"
     x="38"
     y="44"
     style="fill:#57e389;stroke-width:0.92582" />
</svg>
